<svg width="90" height="96" viewBox="0 0 90 96" fill="none" xmlns="http://www.w3.org/2000/svg">
<path d="M54.4028 24.5764C57.1394 26.3356 61.7291 28.6313 67.0302 28.6313C68.6487 28.6313 70.3298 28.4183 72.0499 27.9055C79.1494 25.7913 84.865 19.1961 89.0246 8.30143C89.4624 7.15753 89.0011 5.86374 87.9378 5.26417C86.976 4.71983 64.2702 -7.90252 54.6296 8.00165C53.9259 9.16133 54.2856 10.6839 55.4427 11.3939C56.5921 12.1039 58.0933 11.741 58.8048 10.5735C64.6455 0.933125 78.5317 6.21874 83.6296 8.60121C80.1737 16.7426 75.8186 21.6417 70.6738 23.1721C65.9903 24.5685 61.4632 22.9197 58.4608 21.263C62.7455 18.1705 68.8286 14.9203 77.14 12.7587C78.4457 12.4195 79.2354 11.0783 78.8992 9.753C78.563 8.43554 77.226 7.63875 75.9202 7.97798C61.6587 11.6858 53.3473 18.3993 49.1251 22.896C47.9523 18.4861 45.5676 13.5003 41.0874 8.35665C40.196 7.33109 38.6557 7.23642 37.6393 8.13576C36.6228 9.0351 36.529 10.5892 37.4204 11.6148C47.5066 23.1879 45.3174 33.4988 44.4026 36.3862C44.0351 37.5537 44.5746 38.7844 45.6223 39.3288C45.6458 39.3445 45.677 39.3524 45.7083 39.3682C45.8021 39.4077 45.8882 39.4629 45.9898 39.4944C46.0054 39.4944 46.0211 39.4944 46.0367 39.5023C46.0993 39.526 46.1696 39.5339 46.2322 39.5497C46.2869 39.5654 46.3495 39.5733 46.4042 39.5812C46.5137 39.597 46.6231 39.6049 46.7326 39.6049C46.9828 39.6049 47.2408 39.5812 47.491 39.5023C51.0173 38.39 68.8755 33.4357 74.4268 45.0404C80.7835 58.3254 74.1923 77.9059 59.4147 89.621C55.1222 93.0211 50.3371 89.124 48.4762 87.2858C47.5301 86.3471 46.0054 86.3471 45.0594 87.2858C43.1985 89.124 38.4134 93.0211 34.1208 89.621C19.3276 77.9059 12.7364 58.3254 19.0931 45.0404C22.6506 37.6011 31.3842 37.0015 38.085 37.8062C39.422 37.9719 40.6417 37.0015 40.7981 35.6525C40.9545 34.3035 40.0006 33.0728 38.6636 32.915C26.7868 31.4871 18.4988 34.9425 14.6989 42.9025C7.38046 58.1913 14.5894 80.4145 31.0949 93.5024C36.3726 97.6835 42.354 95.8454 46.7639 92.3348C49.3753 94.4175 52.542 95.9085 55.7868 95.9085C58.0151 95.9085 60.2826 95.2064 62.4249 93.5024C78.9383 80.4145 86.1394 58.1834 78.821 42.9025C72.8787 30.4773 57.632 32.0472 49.9227 33.767C50.079 32.5048 50.165 31.0453 50.1025 29.4281C50.6733 28.5998 52.0337 26.7853 54.4028 24.5764Z" fill="#3C894F"/>
<path d="M2.56268 63.8134H18.9111L23.7848 59.9965L30.3858 68.6143L38.1591 49.5001L47.1045 74.2501L58.2707 59.1019L64.9335 68.6739L70.856 63.8134H86.094" stroke="#3C894F" stroke-width="4.5" stroke-miterlimit="10" stroke-linecap="round" stroke-linejoin="round"/>
</svg>
