<svg width="234" height="71" viewBox="0 0 234 71" fill="none" xmlns="http://www.w3.org/2000/svg">
<g id="Group 1711">
<g id="Layer_1">
<g id="Group">
<path id="Vector" d="M0 35.2123L5.74154 1.19922H14.4422L21.2216 19.3329L27.9459 1.19922H36.6465L42.388 35.2234H33.6432L30.7283 15.6351L22.7453 35.2234H19.2452L11.6597 15.6351L8.74481 35.2234H0V35.2123Z" fill="#50555B"/>
<path id="Vector_2" d="M67.6407 8.68365H57.1845V14.3692H67.0555V21.8647H57.1845V27.7279H67.6407V35.2234H48.3955V1.19922H67.6407V8.69476V8.68365Z" fill="#50555B"/>
<path id="Vector_3" d="M103.238 35.2123H92.2957L83.9042 22.1312V35.2123H75.1152V1.19922H88.7956C90.6836 1.19922 92.3288 1.47683 93.7311 2.03206C95.1333 2.58728 96.2927 3.35349 97.2091 4.30848C98.1256 5.27457 98.8101 6.38502 99.2739 7.65094C99.7376 8.91685 99.9695 10.2716 99.9695 11.7152C99.9695 14.3025 99.3512 16.4013 98.1035 18.0114C96.8668 19.6216 95.034 20.7098 92.6049 21.2873L103.238 35.2345V35.2123ZM83.9042 16.4013H85.5604C87.2939 16.4013 88.6299 16.0459 89.5574 15.313C90.4849 14.5913 90.9486 13.5585 90.9486 12.2038C90.9486 10.849 90.4849 9.81631 89.5574 9.09452C88.6299 8.37273 87.2939 8.00628 85.5604 8.00628H83.9042V16.4013Z" fill="#50555B"/>
<path id="Vector_4" d="M130.078 12.5701C128.047 10.0716 125.529 8.82792 122.537 8.82792C121.223 8.82792 119.998 9.07222 118.882 9.54972C117.756 10.0272 116.796 10.6824 115.99 11.5152C115.183 12.3481 114.543 13.3252 114.079 14.469C113.616 15.6128 113.384 16.8454 113.384 18.1668C113.384 19.4882 113.616 20.7653 114.079 21.909C114.543 23.0528 115.183 24.0411 116.012 24.885C116.829 25.729 117.8 26.3953 118.904 26.8727C120.009 27.3502 121.212 27.5945 122.493 27.5945C125.308 27.5945 127.837 26.3952 130.078 23.9856V34.4571L129.184 34.768C127.837 35.2455 126.578 35.6009 125.419 35.823C124.248 36.0451 123.1 36.1561 121.963 36.1561C119.633 36.1561 117.392 35.7119 115.261 34.8236C113.119 33.9352 111.242 32.6915 109.608 31.0814C107.973 29.4712 106.671 27.5612 105.677 25.3514C104.694 23.1416 104.197 20.732 104.197 18.1113C104.197 15.4906 104.683 13.0921 105.655 10.9156C106.626 8.73909 107.929 6.85132 109.563 5.27448C111.198 3.69764 113.086 2.46504 115.239 1.57668C117.392 0.688321 119.655 0.244141 122.018 0.244141C123.365 0.244141 124.69 0.388499 125.993 0.677216C127.296 0.965933 128.665 1.41011 130.1 2.00976V12.5701H130.078Z" fill="#50555B"/>
<path id="Vector_5" d="M184.547 1.19922V27.7279H195.091V35.2234H175.758V1.19922H184.547Z" fill="#50555B"/>
<path id="Vector_6" d="M222.605 29.3041H210.04L208.02 35.2117H198.646L211.52 1.1875H221.126L234 35.2117H224.626L222.605 29.3041ZM220.265 22.5859L216.312 11.2593L212.359 22.5859H220.254H220.265Z" fill="#50555B"/>
</g>
<g id="Group_2">
<g id="Group_3">
<path id="Vector_7" d="M138.625 6.25184C138.813 6.10748 138.967 5.98533 139.045 5.92981C139.265 5.78545 139.453 5.64109 139.641 5.53004C139.784 5.44121 139.928 5.35237 140.049 5.27464C140.513 4.99703 140.866 4.84156 141.209 4.69721C141.849 4.4307 142.655 4.10867 143.77 3.9532C143.925 3.93099 144.654 3.78664 145.603 3.83105C146.089 3.85326 146.277 3.87547 146.851 4.01983C147.127 4.08646 147.811 4.27523 148.375 4.58616C148.617 4.71941 148.584 4.6861 149.015 4.9304C149.512 5.20801 149.655 5.31906 149.953 5.50783C150.027 5.55225 150.318 5.75213 150.826 6.10748C151.036 6.25184 151.256 6.4184 151.455 6.56276C151.786 6.79596 152.051 6.98473 152.084 7.00694C152.107 7.00694 152.118 7.02915 152.129 7.04026H152.151C152.151 7.04026 152.173 7.01805 152.195 7.00694C152.228 6.98473 152.504 6.79596 152.824 6.56276C153.023 6.4184 153.244 6.25184 153.454 6.10748C153.962 5.75213 154.252 5.55225 154.326 5.50783C154.624 5.31906 154.768 5.21912 155.264 4.9304C155.695 4.6861 155.662 4.71941 155.905 4.58616C156.457 4.27523 157.152 4.09756 157.429 4.01983C158.003 3.87547 158.19 3.85326 158.676 3.83105C159.626 3.78664 160.355 3.93099 160.509 3.9532C161.624 4.10867 162.43 4.4307 163.071 4.69721C163.424 4.84156 163.766 4.99703 164.23 5.27464C164.352 5.35237 164.495 5.44121 164.639 5.53004C164.826 5.64109 165.014 5.78545 165.235 5.92981C165.312 5.98533 165.478 6.10748 165.654 6.25184C165.721 6.30736 165.809 6.37399 165.864 6.42951C165.864 6.42951 165.864 6.42951 165.875 6.44061C162.497 2.48741 157.594 0 152.14 0C146.685 0 141.86 2.4541 138.481 6.36288C138.526 6.31846 138.581 6.28515 138.614 6.25184H138.625Z" fill="#488A60"/>
<path id="Vector_8" opacity="0.59" d="M137.94 7.03307C137.94 7.03307 137.953 7.00842 137.965 6.99609C137.965 6.99609 137.94 7.02074 137.94 7.03307Z" fill="#7F3F98"/>
</g>
<path id="Vector_9" d="M152.129 7.02916C152.129 7.02916 152.162 7.00695 152.173 6.99585C152.206 6.97364 152.482 6.78486 152.802 6.55167C153.001 6.40731 153.222 6.24074 153.432 6.09638C153.94 5.74104 154.23 5.54116 154.304 5.49674C154.602 5.30796 154.746 5.20802 155.243 4.91931C155.673 4.67501 155.64 4.70832 155.883 4.57507C156.435 4.26414 157.131 4.08647 157.407 4.00874C157.981 3.86438 158.169 3.84217 158.654 3.81996C159.604 3.77554 160.333 3.9199 160.487 3.94211C161.602 4.09757 162.408 4.4196 163.049 4.68611C163.402 4.83047 163.744 4.98593 164.208 5.26355C164.33 5.34128 164.473 5.43011 164.617 5.51895C164.804 5.62999 164.992 5.77435 165.213 5.91871C165.29 5.97423 165.456 6.09638 165.633 6.24074C165.699 6.29626 165.787 6.36289 165.842 6.41841C165.898 6.47394 165.953 6.52946 165.997 6.56277C166.107 6.67382 166.24 6.85149 166.317 7.00695C166.428 7.20683 166.483 7.32898 166.516 7.44003C166.549 7.56218 166.56 7.67322 166.571 7.81758C166.615 8.29508 166.461 8.63932 166.372 8.78367C166.096 9.26117 165.644 9.54988 165.213 9.77198C164.584 10.094 164.043 10.1828 163.502 10.2717C163.237 10.3161 162.53 10.4049 161.536 10.3827C160.542 10.3605 159.814 10.2273 159.229 10.1051C158.334 9.92744 157.639 9.71645 157.219 9.57209C156.402 9.29448 155.806 9.05018 155.298 8.80588C154.503 8.42833 154.094 8.20624 153.476 7.8509C153.09 7.62881 152.736 7.40672 152.306 7.118C152.272 7.09579 152.14 7.00695 152.14 7.00695L152.129 7.02916Z" fill="#B5CE85"/>
<path id="Vector_10" d="M152.13 7.02916C152.13 7.02916 152.097 7.00695 152.085 6.99585C152.052 6.97364 151.776 6.78486 151.456 6.55167C151.257 6.40731 151.037 6.24074 150.827 6.09638C150.319 5.74104 150.028 5.54116 149.954 5.49674C149.656 5.30796 149.513 5.20802 149.016 4.91931C148.585 4.67501 148.618 4.70832 148.376 4.57507C147.823 4.26414 147.128 4.08647 146.852 4.00874C146.278 3.86438 146.09 3.84217 145.604 3.81996C144.655 3.77554 143.926 3.9199 143.771 3.94211C142.656 4.09757 141.85 4.4196 141.21 4.68611C140.856 4.83047 140.514 4.98593 140.05 5.26355C139.929 5.34128 139.785 5.43011 139.642 5.51895C139.454 5.62999 139.266 5.77435 139.046 5.91871C138.968 5.97423 138.803 6.09638 138.626 6.24074C138.56 6.29626 138.471 6.36289 138.416 6.41841C138.361 6.47394 138.306 6.52946 138.262 6.56277C138.151 6.67382 138.019 6.85149 137.941 7.00695C137.831 7.20683 137.776 7.32898 137.743 7.44003C137.71 7.56218 137.699 7.67322 137.687 7.81758C137.643 8.29508 137.798 8.63932 137.886 8.78367C138.162 9.26117 138.615 9.54988 139.046 9.77198C139.675 10.094 140.216 10.1828 140.757 10.2717C141.022 10.3161 141.729 10.4049 142.722 10.3827C143.716 10.3605 144.445 10.2273 145.03 10.1051C145.924 9.92744 146.62 9.71645 147.04 9.57209C147.857 9.29448 148.453 9.05018 148.961 8.80588C149.756 8.42833 150.164 8.20624 150.783 7.8509C151.169 7.62881 151.522 7.40672 151.953 7.118C151.986 7.09579 152.119 7.00695 152.119 7.00695L152.13 7.02916Z" fill="#6BAAAA"/>
<g id="Group_4">
<path id="Vector_11" d="M169.265 12.504C169.298 12.7372 169.331 12.937 169.331 13.037C169.342 13.3035 169.375 13.5367 169.375 13.7588C169.375 13.9253 169.386 14.0919 169.386 14.2363C169.386 14.7804 169.353 15.1579 169.298 15.5355C169.199 16.224 169.077 17.0901 168.657 18.134C168.602 18.2783 168.359 18.989 167.851 19.7885C167.586 20.1994 167.476 20.3549 167.068 20.7879C166.869 20.9878 166.361 21.4986 165.82 21.8318C165.588 21.9761 165.632 21.965 165.201 22.2204C164.705 22.5091 164.55 22.5758 164.241 22.7534C164.167 22.7978 163.851 22.9496 163.291 23.2087C163.059 23.3198 162.806 23.4197 162.585 23.5196C162.22 23.6862 161.922 23.8306 161.889 23.8528C161.867 23.8528 161.856 23.8639 161.845 23.875V23.8972C161.845 23.8972 161.845 23.9305 161.845 23.9527C161.845 23.9971 161.867 24.3192 161.911 24.73C161.933 24.9743 161.977 25.2519 161.999 25.5073C162.051 26.1292 162.077 26.4808 162.077 26.5623C162.077 26.9176 162.11 27.0842 162.099 27.6616C162.099 28.1502 162.077 28.1169 162.077 28.3945C162.066 29.0386 161.878 29.7271 161.801 30.0047C161.646 30.5821 161.558 30.7487 161.337 31.1929C160.906 32.0368 160.41 32.6031 160.321 32.7253C159.626 33.6247 158.952 34.1689 158.4 34.5908C158.102 34.824 157.793 35.0461 157.329 35.3126C157.196 35.3792 157.053 35.457 156.909 35.5458C156.722 35.6458 156.501 35.7457 156.269 35.8678C156.181 35.9123 155.993 35.9789 155.783 36.0788C155.706 36.1121 155.607 36.1455 155.518 36.1677C155.518 36.1677 155.507 36.1677 155.496 36.1677C160.586 35.2016 165.179 32.17 167.896 27.4173C170.601 22.6979 170.921 17.2345 169.243 12.3374C169.254 12.3929 169.265 12.4596 169.276 12.5151L169.265 12.504Z" fill="#488A60"/>
<path id="Vector_12" opacity="0.59" d="M168.934 11.5156C168.934 11.5156 168.946 11.5403 168.958 11.5526C168.958 11.5403 168.958 11.5279 168.946 11.5156H168.934Z" fill="#7F3F98"/>
</g>
<path id="Vector_13" d="M161.857 23.8853C161.857 23.8853 161.857 23.9186 161.857 23.9408C161.857 23.9852 161.879 24.3072 161.924 24.7181C161.946 24.9624 161.99 25.24 162.012 25.4954C162.064 26.1173 162.089 26.4689 162.089 26.5503C162.089 26.9057 162.122 27.0722 162.111 27.6497C162.111 28.1383 162.089 28.105 162.089 28.3826C162.078 29.0266 161.891 29.7151 161.813 29.9927C161.659 30.5702 161.57 30.7367 161.35 31.1809C160.919 32.0249 160.422 32.5912 160.334 32.7133C159.638 33.6128 158.965 34.1569 158.412 34.5789C158.114 34.8121 157.805 35.0342 157.341 35.3007C157.209 35.3673 157.065 35.445 156.922 35.5339C156.734 35.6338 156.513 35.7338 156.281 35.8559C156.193 35.9003 156.005 35.967 155.796 36.0669C155.718 36.1002 155.619 36.1335 155.531 36.1557C155.453 36.1779 155.387 36.189 155.332 36.2113C155.177 36.2557 154.968 36.2779 154.78 36.2668C154.548 36.2668 154.427 36.2446 154.316 36.2224C154.195 36.189 154.095 36.1446 153.952 36.0891C153.521 35.8892 153.3 35.5783 153.223 35.4339C152.947 34.9453 152.925 34.4123 152.958 33.9237C153.002 33.213 153.19 32.7022 153.378 32.1803C153.466 31.936 153.742 31.2586 154.261 30.4147C154.78 29.5708 155.255 28.9933 155.652 28.538C156.248 27.8496 156.778 27.3499 157.11 27.05C157.761 26.4726 158.258 26.0839 158.733 25.7508C159.45 25.24 159.848 25.0068 160.466 24.6404C160.853 24.4183 161.217 24.2184 161.681 23.9852C161.714 23.963 161.857 23.8964 161.857 23.8964V23.8853Z" fill="#B5CE85"/>
<path id="Vector_14" d="M161.846 23.8857C161.846 23.8857 161.879 23.8746 161.901 23.8635C161.934 23.8413 162.232 23.6969 162.596 23.5304C162.817 23.4304 163.071 23.3305 163.303 23.2194C163.862 22.9529 164.179 22.8012 164.253 22.7642C164.562 22.5976 164.716 22.531 165.213 22.2311C165.633 21.9757 165.589 21.9868 165.831 21.8425C166.373 21.5094 166.88 20.9985 167.079 20.7987C167.499 20.3656 167.598 20.2212 167.863 19.7993C168.371 18.9997 168.614 18.289 168.669 18.1447C169.1 17.0898 169.221 16.2347 169.31 15.5462C169.365 15.1687 169.398 14.7911 169.398 14.247C169.398 14.1026 169.398 13.9361 169.387 13.7695C169.387 13.5585 169.354 13.3142 169.343 13.0477C169.343 12.9478 169.31 12.7479 169.276 12.5147C169.276 12.4259 169.243 12.3259 169.221 12.2371C169.199 12.1594 169.177 12.0927 169.166 12.0372C169.133 11.8817 169.034 11.6819 168.945 11.5264C168.824 11.3265 168.757 11.2266 168.669 11.1377C168.581 11.0489 168.492 10.9823 168.371 10.8934C167.985 10.6158 167.609 10.5825 167.444 10.5825C166.891 10.5825 166.417 10.8379 166.008 11.1044C165.423 11.4931 165.07 11.9262 164.716 12.3481C164.551 12.548 164.109 13.1255 163.634 14.0027C163.171 14.8689 162.906 15.5795 162.718 16.157C162.42 17.0231 162.265 17.7338 162.177 18.178C162.011 19.033 161.923 19.666 161.868 20.2323C161.79 21.1207 161.779 21.576 161.779 22.2978C161.779 22.742 161.79 23.1639 161.823 23.6858C161.823 23.7303 161.835 23.8857 161.835 23.8857H161.846Z" fill="#6BAAAA"/>
<g id="Group_5">
<path id="Vector_15" d="M134.994 12.504C134.96 12.7372 134.927 12.937 134.927 13.037C134.916 13.3035 134.883 13.5367 134.883 13.7588C134.883 13.9253 134.872 14.0919 134.872 14.2363C134.872 14.7804 134.905 15.1579 134.96 15.5355C135.06 16.224 135.181 17.0901 135.601 18.134C135.656 18.2783 135.899 18.989 136.407 19.7885C136.672 20.1994 136.782 20.3549 137.191 20.7879C137.39 20.9878 137.898 21.4986 138.439 21.8318C138.67 21.9761 138.626 21.965 139.057 22.2204C139.554 22.5091 139.708 22.5758 140.017 22.7534C140.091 22.7978 140.408 22.9496 140.967 23.2087C141.199 23.3198 141.453 23.4197 141.674 23.5196C142.038 23.6862 142.336 23.8306 142.369 23.8528C142.391 23.8528 142.402 23.8639 142.413 23.875V23.8972C142.413 23.8972 142.413 23.9305 142.413 23.9527C142.413 23.9971 142.391 24.3192 142.347 24.73C142.325 24.9743 142.281 25.2519 142.259 25.5073C142.207 26.1292 142.182 26.4808 142.182 26.5623C142.182 26.9176 142.148 27.0842 142.16 27.6616C142.16 28.1502 142.182 28.1169 142.182 28.3945C142.193 29.0386 142.38 29.7271 142.458 30.0047C142.612 30.5821 142.701 30.7487 142.921 31.1929C143.352 32.0368 143.849 32.6031 143.937 32.7253C144.633 33.6247 145.306 34.1689 145.858 34.5908C146.157 34.824 146.466 35.0461 146.929 35.3126C147.062 35.3792 147.205 35.457 147.349 35.5458C147.537 35.6458 147.758 35.7457 147.989 35.8678C148.078 35.9123 148.265 35.9789 148.475 36.0788C148.552 36.1121 148.652 36.1455 148.74 36.1677C148.74 36.1677 148.751 36.1677 148.762 36.1677C143.672 35.2016 139.079 32.17 136.363 27.4173C133.647 22.6646 133.337 17.2345 135.016 12.3374C135.005 12.3929 134.994 12.4596 134.983 12.5151L134.994 12.504Z" fill="#488A60"/>
<path id="Vector_16" opacity="0.59" d="M135.327 11.5156C135.327 11.5156 135.315 11.5403 135.303 11.5526C135.303 11.5403 135.303 11.5279 135.315 11.5156H135.327Z" fill="#7F3F98"/>
</g>
<path id="Vector_17" d="M142.412 23.8853C142.412 23.8853 142.412 23.9186 142.412 23.9408C142.412 23.9852 142.39 24.3072 142.346 24.7181C142.324 24.9624 142.28 25.24 142.258 25.4954C142.206 26.1173 142.181 26.4689 142.181 26.5503C142.181 26.9057 142.147 27.0722 142.159 27.6497C142.159 28.1383 142.181 28.105 142.181 28.3826C142.192 29.0266 142.379 29.7151 142.457 29.9927C142.611 30.5702 142.7 30.7367 142.92 31.1809C143.351 32.0249 143.848 32.5912 143.936 32.7133C144.632 33.6128 145.305 34.1569 145.857 34.5789C146.156 34.8121 146.465 35.0342 146.928 35.3007C147.061 35.3673 147.204 35.445 147.348 35.5339C147.536 35.6338 147.757 35.7338 147.988 35.8559C148.077 35.9003 148.264 35.967 148.474 36.0669C148.551 36.1002 148.651 36.1335 148.739 36.1557C148.816 36.1779 148.883 36.189 148.938 36.2113C149.093 36.2557 149.302 36.2779 149.49 36.2668C149.722 36.2668 149.843 36.2446 149.954 36.2224C150.075 36.189 150.175 36.1446 150.318 36.0891C150.749 35.8892 150.97 35.5783 151.047 35.4339C151.323 34.9453 151.345 34.4123 151.312 33.9237C151.268 33.213 151.08 32.7022 150.892 32.1803C150.804 31.936 150.528 31.2586 150.009 30.4147C149.49 29.5708 149.015 28.9933 148.618 28.538C148.022 27.8496 147.492 27.3499 147.16 27.05C146.509 26.4726 146.012 26.0839 145.537 25.7508C144.819 25.24 144.422 25.0068 143.804 24.6404C143.417 24.4183 143.053 24.2184 142.589 23.9852C142.556 23.963 142.412 23.8964 142.412 23.8964V23.8853Z" fill="#6BAAAA"/>
<path id="Vector_18" d="M142.413 23.8857C142.413 23.8857 142.38 23.8746 142.357 23.8635C142.324 23.8413 142.026 23.6969 141.662 23.5304C141.441 23.4304 141.187 23.3305 140.955 23.2194C140.396 22.9529 140.079 22.8012 140.006 22.7642C139.696 22.5976 139.542 22.531 139.045 22.2311C138.625 21.9757 138.67 21.9868 138.427 21.8425C137.886 21.5094 137.378 20.9985 137.179 20.7987C136.759 20.3656 136.66 20.2212 136.395 19.7993C135.887 18.9997 135.644 18.289 135.589 18.1447C135.158 17.0898 135.037 16.2347 134.949 15.5462C134.893 15.1687 134.86 14.7911 134.86 14.247C134.86 14.1026 134.86 13.9361 134.871 13.7695C134.871 13.5585 134.905 13.3142 134.916 13.0477C134.916 12.9478 134.949 12.7479 134.982 12.5147C134.982 12.4259 135.015 12.3259 135.037 12.2371C135.059 12.1594 135.081 12.0927 135.092 12.0372C135.125 11.8817 135.225 11.6819 135.313 11.5264C135.435 11.3265 135.501 11.2266 135.589 11.1377C135.677 11.0489 135.766 10.9823 135.887 10.8934C136.274 10.6158 136.649 10.5825 136.815 10.5825C137.367 10.5825 137.842 10.8379 138.25 11.1044C138.835 11.4931 139.189 11.9262 139.542 12.3481C139.708 12.548 140.149 13.1255 140.624 14.0027C141.099 14.88 141.353 15.5795 141.54 16.157C141.839 17.0231 141.993 17.7338 142.081 18.178C142.247 19.033 142.335 19.666 142.391 20.2323C142.468 21.1207 142.479 21.576 142.479 22.2978C142.479 22.742 142.468 23.1639 142.435 23.6858C142.435 23.7303 142.424 23.8857 142.424 23.8857H142.413Z" fill="#B5CE85"/>
</g>
</g>
<g id="HEALTH COACH">
<path id="Vector_19" d="M198.354 69.9067V51.3984H201.363V58.2252H210.466V51.3984H213.475V69.9067H210.466V60.918H201.363V69.9067H198.354Z" fill="#95989D"/>
<path id="Vector_20" d="M194.625 55.8987C193.773 55.1739 192.872 54.6302 191.919 54.2678C190.975 53.9054 189.981 53.7242 188.936 53.7242C186.913 53.7242 185.265 54.3732 183.993 55.6711C182.728 56.969 182.096 58.6505 182.096 60.7154C182.096 62.7128 182.711 64.3605 183.942 65.6585C185.181 66.9564 186.74 67.6054 188.62 67.6054C189.715 67.6054 190.756 67.4115 191.742 67.0238C192.737 66.6361 193.689 66.0504 194.599 65.2666V68.6673C193.79 69.2489 192.91 69.6829 191.957 69.9695C191.005 70.256 189.972 70.3993 188.86 70.3993C187.444 70.3993 186.133 70.1675 184.928 69.704C183.731 69.2404 182.678 68.5578 181.768 67.6559C180.866 66.771 180.17 65.7301 179.682 64.5333C179.201 63.3281 178.961 62.047 178.961 60.6901C178.961 59.3331 179.201 58.0605 179.682 56.8721C180.17 55.6753 180.874 54.626 181.793 53.7242C182.711 52.814 183.765 52.1271 184.953 51.6635C186.142 51.1916 187.427 50.9556 188.809 50.9556C189.896 50.9556 190.933 51.1157 191.919 51.436C192.905 51.7478 193.862 52.224 194.789 52.8645L194.625 55.8987Z" fill="#95989D"/>
<path id="Vector_21" d="M166.989 62.6372H172.147L170.25 58.4147C170.141 58.145 170.027 57.8374 169.909 57.4918C169.791 57.1379 169.673 56.7459 169.555 56.3161C169.454 56.7207 169.344 57.0999 169.226 57.4539C169.117 57.7995 169.003 58.1197 168.885 58.4147L166.989 62.6372ZM175.307 69.9065L173.209 65.1404H165.876L163.727 69.9065H160.566L169.53 50.665L178.48 69.9065H175.307Z" fill="#95989D"/>
<path id="Vector_22" d="M156.951 60.6902C156.951 59.7547 156.778 58.8655 156.432 58.0227C156.095 57.1799 155.606 56.4298 154.966 55.7724C154.342 55.1234 153.617 54.6261 152.791 54.2806C151.974 53.9266 151.11 53.7496 150.2 53.7496C149.289 53.7496 148.421 53.9224 147.595 54.2679C146.778 54.6135 146.049 55.115 145.408 55.7724C144.768 56.4213 144.279 57.1672 143.942 58.01C143.605 58.8528 143.436 59.7462 143.436 60.6902C143.436 61.6257 143.605 62.5107 143.942 63.345C144.279 64.1794 144.768 64.9253 145.408 65.5827C146.049 66.2401 146.778 66.7416 147.595 67.0871C148.413 67.4327 149.281 67.6055 150.2 67.6055C151.101 67.6055 151.957 67.4327 152.766 67.0871C153.584 66.7416 154.317 66.2401 154.966 65.5827C155.606 64.9253 156.095 64.1794 156.432 63.345C156.778 62.5022 156.951 61.6173 156.951 60.6902ZM160.086 60.6902C160.086 62.005 159.837 63.2481 159.34 64.4196C158.851 65.5912 158.135 66.6362 157.191 67.5549C156.238 68.4736 155.164 69.1773 153.967 69.6662C152.77 70.155 151.514 70.3994 150.2 70.3994C148.868 70.3994 147.595 70.155 146.382 69.6662C145.176 69.1689 144.11 68.4652 143.183 67.5549C142.239 66.6362 141.523 65.5954 141.034 64.4323C140.545 63.2692 140.301 62.0218 140.301 60.6902C140.301 59.367 140.545 58.1196 141.034 56.9481C141.523 55.7766 142.239 54.7273 143.183 53.8002C144.127 52.8815 145.198 52.182 146.394 51.7016C147.591 51.2212 148.86 50.981 150.2 50.981C151.531 50.981 152.791 51.2212 153.98 51.7016C155.176 52.182 156.247 52.8815 157.191 53.8002C158.135 54.7357 158.851 55.7934 159.34 56.9734C159.837 58.1449 160.086 59.3838 160.086 60.6902Z" fill="#95989D"/>
<path id="Vector_23" d="M137.381 55.8987C136.529 55.1739 135.627 54.6302 134.675 54.2678C133.731 53.9054 132.737 53.7242 131.692 53.7242C129.669 53.7242 128.021 54.3732 126.748 55.6711C125.484 56.969 124.852 58.6505 124.852 60.7154C124.852 62.7128 125.467 64.3605 126.698 65.6585C127.937 66.9564 129.496 67.6054 131.375 67.6054C132.471 67.6054 133.512 67.4115 134.498 67.0238C135.493 66.6361 136.445 66.0504 137.355 65.2666V68.6673C136.546 69.2489 135.665 69.6829 134.713 69.9695C133.761 70.256 132.728 70.3993 131.616 70.3993C130.2 70.3993 128.889 70.1675 127.684 69.704C126.487 69.2404 125.434 68.5578 124.523 67.6559C123.622 66.771 122.926 65.7301 122.437 64.5333C121.957 63.3281 121.717 62.047 121.717 60.6901C121.717 59.3331 121.957 58.0605 122.437 56.8721C122.926 55.6753 123.63 54.626 124.549 53.7242C125.467 52.814 126.521 52.1271 127.709 51.6635C128.898 51.1916 130.183 50.9556 131.565 50.9556C132.652 50.9556 133.689 51.1157 134.675 51.436C135.661 51.7478 136.618 52.224 137.545 52.8645L137.381 55.8987Z" fill="#95989D"/>
<path id="Vector_24" d="M95.3457 69.9067V51.3984H98.3546V58.2252H107.457V51.3984H110.466V69.9067H107.457V60.918H98.3546V69.9067H95.3457Z" fill="#95989D"/>
<path id="Vector_25" d="M88.1523 53.9522V69.9067H85.1434V53.9522H80.2256V51.3984H93.0448V53.9522H88.1523Z" fill="#95989D"/>
<path id="Vector_26" d="M71.4014 69.9067V51.3984H74.4102V67.2139H81.1359V69.9067H71.4014Z" fill="#95989D"/>
<path id="Vector_27" d="M58.1644 62.6372H63.3225L61.4261 58.4147C61.3166 58.145 61.2028 57.8374 61.0848 57.4918C60.9668 57.1379 60.8488 56.7459 60.7308 56.3161C60.6297 56.7207 60.5201 57.0999 60.4021 57.4539C60.2925 57.7995 60.1788 58.1197 60.0608 58.4147L58.1644 62.6372ZM66.483 69.9065L64.3844 65.1404H57.0519L54.9027 69.9065H51.7422L60.7055 50.665L69.6562 69.9065H66.483Z" fill="#95989D"/>
<path id="Vector_28" d="M40.4785 69.9067V51.3984H50.8072V53.9522H43.4874V58.5919H50.8072V61.2341H43.4874V67.2139H50.8072V69.9067H40.4785Z" fill="#95989D"/>
<path id="Vector_29" d="M21.1104 69.9067V51.3984H24.1192V58.2252H33.2216V51.3984H36.2304V69.9067H33.2216V60.918H24.1192V69.9067H21.1104Z" fill="#95989D"/>
</g>
</g>
</svg>
